#!OML:ASF F:\VICON\USERDATA\INSTALL\rory3\rory3.ASF
:FULLY-SPECIFIED
:DEGREES
931
root -3.27982 19.0194 6.86653 0.728152 -20.605 6.02599
lowerback 4.89958 -0.139983 2.89898
upperback 0.366044 0.00260895 1.37758
thorax -2.37084 -0.023932 -0.20971
lowerneck -12.0967 -6.67656 -6.70049
upperneck 1.51364 -10.1413 28.3103
head 4.58822 -4.03946 9.34098
rclavicle -2.32578e-014 1.43125e-014
rhumerus 39.9395 0.0700632 -7.92667
rradius 70.3477
rwrist 37.6679
rhand -60.8363 25.3208
rfingers 7.12502
rthumb -32.9477 -1.69041
lclavicle -2.32578e-014 1.43125e-014
lhumerus -27.718 -2.22812 77.3343
lradius 29.0761
lwrist -8.58675
lhand -19.1507 20.6016
lfingers 7.12502
lthumb 7.15969 50.4605
rfemur -7.116 20.3875 17.0128
rtibia 21.1437
rfoot -14.0988 -17.6184
rtoes -4.17811
lfemur -2.32841 1.27909 -9.68644
ltibia 19.2681
lfoot 1.06776 20.7565
ltoes -14.8426
932
root -3.29676 19.0178 6.87135 0.751003 -20.3682 6.02071
lowerback 4.89012 -0.0894093 2.94929
upperback 0.328229 0.0716205 1.29429
thorax -2.4026 0.00901822 -0.32823
lowerneck -12.2498 -6.71445 -6.54337
upperneck 1.3744 -10.1895 28.3602
head 4.58028 -4.05774 9.3193
rclavicle -1.25234e-014 2.8625e-014
rhumerus 40.2128 -1.77629 -8.6144
rradius 69.6269
rwrist 38.4201
rhand -61.4457 24.5748
rfingers 7.12502
rthumb -33.5271 -2.3127
lclavicle -1.25234e-014 2.8625e-014
lhumerus -27.601 -2.37628 77.3345
lradius 28.865
lwrist -8.48032
lhand -19.0543 20.7951
lfingers 7.12502
lthumb 7.25271 50.6508
rfemur -7.059 20.3126 17.0858
rtibia 21.0959
rfoot -14.0447 -17.7961
rtoes -4.21526
lfemur -2.5778 1.29577 -9.59596
ltibia 19.5483
lfoot 1.05946 20.6306
ltoes -14.0171
933
root -3.31438 19.0176 6.87681 0.707569 -20.1252 5.97904
lowerback 4.93856 -0.0621114 2.99221
upperback 0.313636 0.111825 1.25127
thorax -2.44353 0.0278421 -0.399247
lowerneck -12.4805 -6.74626 -6.44714
upperneck 1.52111 -10.2823 28.3377
head 4.67527 -4.07177 9.27997
rclavicle -4.49253e-014 -2.22639e-014
rhumerus 40.6737 -3.53209 -9.3951
rradius 68.8108
rwrist 38.9496
rhand -61.431 26.0925
rfingers 7.12502
rthumb -33.5131 -0.798019
lclavicle -4.49253e-014 -2.22639e-014
lhumerus -27.5461 -2.42665 77.3503
lradius 28.7004
lwrist -8.43199
lhand -19.0023 20.8003
lfingers 7.12502
lthumb 7.30293 50.6543
rfemur -6.87335 20.2659 17.235
rtibia 21.0234
rfoot -14.0514 -17.979
rtoes -4.17779
lfemur -2.69473 1.2979 -9.47186
ltibia 19.7743
lfoot 1.13262 20.4595
ltoes -13.3037
934
root -3.33275 19.0193 6.88302 0.701071 -19.8527 5.97128
lowerback 4.903 -0.0464379 3.01535
upperback 0.303516 0.131456 1.19096
thorax -2.43325 0.0372106 -0.475593
lowerneck -12.7037 -6.79349 -6.4721
upperneck 1.33879 -10.3351 28.6324
head 4.69956 -4.08469 9.37821
rclavicle -5.37713e-014 1.43125e-014
rhumerus 41.2382 -5.24608 -10.3534
rradius 67.9188
rwrist 39.1543
rhand -61.2314 27.7847
rfingers 7.12502
rthumb -33.3234 0.853286
lclavicle -5.37713e-014 1.43125e-014
lhumerus -27.4874 -2.40402 77.3444
lradius 28.5019
lwrist -8.4498
lhand -18.9923 20.7453
lfingers 7.12502
lthumb 7.31254 50.5989
rfemur -6.72823 20.2157 17.34
rtibia 20.9629
rfoot -14.0825 -18.1408
rtoes -3.77156
lfemur -2.8367 1.27415 -9.3931
ltibia 19.9469
lfoot 1.46572 20.2715
ltoes -13.1549
935
root -3.34836 19.0215 6.89111 0.687421 -19.5434 6.1933
lowerback 4.78257 -0.0373134 2.84244
upperback 0.264785 0.12828 1.09053
thorax -2.40578 0.0372358 -0.481755
lowerneck -12.8288 -6.87332 -6.53511
upperneck 1.02206 -10.3938 28.9316
head 4.67083 -4.11894 9.48433
rclavicle -3.67752e-015 -3.18055e-015
rhumerus 41.8816 -6.91872 -11.3014
rradius 66.9683
rwrist 38.9832
rhand -61.1073 28.7584
rfingers 7.12502
rthumb -33.2053 1.8017
lclavicle -3.67752e-015 -3.18055e-015
lhumerus -27.4455 -2.32096 77.3705
lradius 28.2758
lwrist -8.54951
lhand -18.9938 20.6901
lfingers 7.12502
lthumb 7.31112 50.5438
rfemur -6.65888 20.0931 17.1535
rtibia 20.9044
rfoot -14.167 -18.2354
rtoes -3.24416
lfemur -3.05744 1.18959 -9.57821
ltibia 20.1223
lfoot 1.77071 20.1132
ltoes -13.347
936
root -3.3636 19.0226 6.89714 0.678307 -19.2796 6.29163
lowerback 4.72863 -0.0312686 2.75731
upperback 0.219505 0.129871 1.0414
thorax -2.42215 0.0383025 -0.484642
lowerneck -12.8601 -6.92693 -6.41072
upperneck 0.857534 -10.4391 28.8633
head 4.62393 -4.15157 9.42748
rclavicle -1.5207e-014 -1.43125e-014
rhumerus 42.6402 -8.53811 -12.3369
rradius 65.9133
rwrist 38.6211
rhand -60.9005 29.1034
rfingers 7.12502
rthumb -33.0087 2.10503
lclavicle -1.5207e-014 -1.43125e-014
lhumerus -27.5035 -2.26265 77.415
lradius 28.1487
lwrist -8.59018
lhand -19.0325 20.8515
lfingers 7.12502
lthumb 7.27382 50.7065
rfemur -6.5482 20.0238 17.1151
rtibia 20.8553
rfoot -14.2793 -18.3659
rtoes -2.94753
lfemur -3.24563 1.14081 -9.60605
ltibia 20.2703
lfoot 1.9404 20.022
ltoes -13.1777
937
root -3.38169 19.0194 6.90093 0.74446 -19.0962 6.16866
lowerback 4.67804 -0.00434955 2.85957
upperback 0.197326 0.169659 1.03444
thorax -2.41521 0.0568747 -0.551677
lowerneck -12.889 -6.99036 -6.23523
upperneck 0.617811 -10.4913 28.8227
head 4.55533 -4.19295 9.36972
rclavicle 1.07344e-014 -3.65764e-014
rhumerus 43.4341 -10.1249 -13.3936
rradius 64.7865
rwrist 37.8479
rhand -60.6638 28.7663
rfingers 7.12502
rthumb -32.7835 1.72063
lclavicle 1.07344e-014 -3.65764e-014
lhumerus -27.5304 -2.19815 77.4221
lradius 28.0198
lwrist -8.7294
lhand -18.9693 20.9693
lfingers 7.12502
lthumb 7.3348 50.8221
rfemur -6.49565 20.1534 17.331
rtibia 20.8427
rfoot -14.327 -18.6141
rtoes -2.40019
lfemur -3.39146 1.21281 -9.36869
ltibia 20.3341
lfoot 2.20503 19.8794
ltoes -12.9748
938
root -3.39877 19.018 6.90577 0.733315 -18.8813 6.17095
lowerback 4.66704 0.0035378 2.8861
upperback 0.189518 0.180093 0.978506
thorax -2.41651 0.0614783 -0.624729
lowerneck -12.9142 -7.05573 -6.18138
upperneck 0.342431 -10.5394 28.9719
head 4.4988 -4.23119 9.40363
rclavicle -3.52843e-014 3.02153e-014
rhumerus 44.1308 -11.4648 -14.342
rradius 63.7864
rwrist 36.1469
rhand -61.0676 26.2915
rfingers 7.12502
rthumb -33.1676 -0.673155
lclavicle -3.52843e-014 3.02153e-014
lhumerus -27.5604 -2.23105 77.4159
lradius 27.9102
lwrist -8.83821
lhand -18.858 21.0723
lfingers 7.12502
lthumb 7.44221 50.9214
rfemur -6.40979 20.1603 17.4189
rtibia 20.8181
rfoot -14.3264 -18.8206
rtoes -2.13984
lfemur -3.4733 1.19158 -9.29316
ltibia 20.3859
lfoot 2.48666 19.7152
ltoes -12.8224
939
root -3.41261 19.0205 6.91569 0.655528 -18.625 6.39299
lowerback 4.63338 -0.0395236 2.7194
upperback 0.161027 0.111646 0.898127
thorax -2.42922 0.0286074 -0.609408
lowerneck -12.8763 -7.11255 -6.04148
upperneck 0.143177 -10.5755 28.8304
head 4.41963 -4.27077 9.32028
rclavicle -3.13086e-014 1.11319e-014
rhumerus 45.0834 -12.6802 -15.5713
rradius 62.6809
rwrist 34.3532
rhand -60.9706 24.0101
rfingers 7.12502
rthumb -33.0753 -2.97418
lclavicle -3.13086e-014 1.11319e-014
lhumerus -27.656 -2.12866 77.4133
lradius 27.7226
lwrist -8.88807
lhand -18.9464 21.0375
lfingers 7.12502
lthumb 7.35685 50.8896
rfemur -6.28021 19.8935 17.2395
rtibia 20.7603
rfoot -14.3695 -18.8071
rtoes -2.10714
lfemur -3.54957 1.08271 -9.48914
ltibia 20.4686
lfoot 2.82388 19.5548
ltoes -12.6676
